<?xml version="1.0" encoding="utf-8"?>
<!DOCTYPE svg PUBLIC "-//W3C//DTD SVG 1.1//EN" "http://www.w3.org/Graphics/SVG/1.1/DTD/svg11.dtd">
<svg version="1.1" id="icon-loremipsum-layer" xmlns="http://www.w3.org/2000/svg" xmlns:xlink="http://www.w3.org/1999/xlink"
	 x="0px" y="0px" width="50px" height="50px" viewBox="0 0 50 50" enable-background="new 0 0 50 50" xml:space="preserve">
	<g id="icon-loremipsum">
		<path id="paper" fill="#60BFBD" d="M43,17v29c0,1.1-0.9,2-2,2H9c-1.1,0-2-0.9-2-2V4c0-1.1,0.9-2,2-2h19L43,17z"/>
		<polygon id="corner" opacity="0.25" points="43,17 28,17 28,2"/>
		<polygon id="shadow" opacity="0.1" points="43,32 28,17 43,17"/>
		<path id="text" fill="#FFFFFF" d="M27,34v4H16V21h4v13H27z M34,26h-4v12h4V26z M32,21c-1.1,0-2,0.9-2,2s0.9,2,2,2s2-0.9,2-2
			S33.1,21,32,21z"/>
	</g>
</svg>
